<svg xmlns="http://www.w3.org/2000/svg" width="25.023" height="16.089" viewBox="0 0 25.023 16.089">
  <g id="layer1" transform="translate(-0.529 759.482)">
    <path id="path1167" d="M5-759.482a.893.893,0,0,0-.635.262.893.893,0,0,0-.262.635v1.787H5.893v-.9H23.764v8.938h-.892v1.789h1.789a.894.894,0,0,0,.89-.9v-10.72a.894.894,0,0,0-.89-.9Zm-3.576,3.575a.893.893,0,0,0-.635.262.894.894,0,0,0-.262.635v10.72a.893.893,0,0,0,.262.635.892.892,0,0,0,.635.262H21.085a.894.894,0,0,0,.89-.9v-10.72a.894.894,0,0,0-.89-.9Zm.89,1.789H3.945a2.64,2.64,0,0,1-1.628,1.627Zm3.487,0H16.709l0,.007a4.44,4.44,0,0,0,.674,1.6,4.487,4.487,0,0,0,2.8,1.882v1.971a4.49,4.49,0,0,0-3.479,3.484H5.8a4.492,4.492,0,0,0-3.487-3.486v-1.967A4.492,4.492,0,0,0,5.8-754.119Zm12.764,0h1.62v1.623A2.636,2.636,0,0,1,18.568-754.118Zm-7.312,1.787a2.7,2.7,0,0,0-2.686,2.677,2.7,2.7,0,0,0,2.686,2.686,2.7,2.7,0,0,0,2.678-2.686A2.689,2.689,0,0,0,11.257-752.331Zm0,1.787a.875.875,0,0,1,.89.89.881.881,0,0,1-.89.9.886.886,0,0,1-.9-.9A.88.88,0,0,1,11.257-750.543Zm-8.94,3.737a2.64,2.64,0,0,1,1.628,1.627H2.316Zm17.872,0v1.625h-1.62A2.639,2.639,0,0,1,20.188-746.8Z" transform="translate(0 0)" fill="#05965b"/>
  </g>
</svg>
